<svg width="200" height="130" viewBox="0 0 200 130" fill="none" xmlns="http://www.w3.org/2000/svg">
<path d="M24.1043 92.7266L29.7473 74.1476H36.3143L42.1223 92.7266H37.8653L36.4793 87.7766H29.7473L28.3943 92.7266H24.1043ZM33.1133 75.7976L30.6053 84.7076H35.6213L33.1133 75.7976ZM49.8471 77.5466V74.1476H64.3671V77.5466H59.0871V92.7266H55.0941V77.5466H49.8471ZM81.879 93.1886C78.843 93.1886 76.522 92.3196 74.916 90.5816C73.31 88.8216 72.507 86.4566 72.507 83.4866C72.507 81.5286 72.848 79.8346 73.53 78.4046C74.234 76.9526 75.279 75.8306 76.665 75.0386C78.051 74.2246 79.789 73.8176 81.879 73.8176C84.937 73.8176 87.258 74.6976 88.842 76.4576C90.426 78.1956 91.218 80.5386 91.218 83.4866C91.218 85.4006 90.866 87.0946 90.162 88.5686C89.458 90.0206 88.413 91.1536 87.027 91.9676C85.641 92.7816 83.925 93.1886 81.879 93.1886ZM81.846 89.3276C83.056 89.3276 84.068 89.0746 84.882 88.5686C85.696 88.0406 86.301 87.3366 86.697 86.4566C87.093 85.5766 87.291 84.5866 87.291 83.4866C87.291 82.3866 87.093 81.3856 86.697 80.4836C86.301 79.5816 85.696 78.8666 84.882 78.3386C84.068 77.8106 83.056 77.5466 81.846 77.5466C80.064 77.5466 78.711 78.1076 77.787 79.2296C76.863 80.3296 76.401 81.7486 76.401 83.4866C76.401 84.5646 76.599 85.5436 76.995 86.4236C77.391 87.3036 77.985 88.0076 78.777 88.5356C79.591 89.0636 80.614 89.3276 81.846 89.3276ZM101.125 92.7266V74.1476H108.055L111.619 91.0436H111.685L115.183 74.1476H122.08V92.7266H117.955L118.252 75.8636H118.186L114.523 92.7266H108.715L105.085 75.8636H105.019L105.25 92.7266H101.125ZM140.857 93.1886C138.151 93.1886 136.094 92.4626 134.686 91.0106C133.3 89.5366 132.607 87.4686 132.607 84.8066V74.1476H136.864V84.7736C136.864 86.0716 137.073 87.0506 137.491 87.7106C137.931 88.3706 138.459 88.8216 139.075 89.0636C139.691 89.2836 140.285 89.3936 140.857 89.3936C141.517 89.3936 142.155 89.2836 142.771 89.0636C143.387 88.8216 143.893 88.3706 144.289 87.7106C144.685 87.0506 144.883 86.0716 144.883 84.7736V74.1476H149.14V84.8066C149.14 87.5126 148.447 89.5916 147.061 91.0436C145.697 92.4736 143.629 93.1886 140.857 93.1886ZM166.909 93.0896C165.875 93.0896 164.863 92.9686 163.873 92.7266C162.883 92.4846 161.981 92.0996 161.167 91.5716C160.353 91.0436 159.704 90.3616 159.22 89.5256C158.758 88.6896 158.527 87.6776 158.527 86.4896H162.52C162.52 86.5996 162.564 86.8196 162.652 87.1496C162.74 87.4576 162.938 87.7986 163.246 88.1726C163.554 88.5246 164.027 88.8326 164.665 89.0966C165.303 89.3386 166.15 89.4596 167.206 89.4596C168.174 89.4596 168.966 89.3056 169.582 88.9976C170.22 88.6676 170.55 88.1946 170.572 87.5786C170.572 87.0506 170.352 86.6326 169.912 86.3246C169.494 86.0166 168.933 85.7636 168.229 85.5656C167.525 85.3456 166.744 85.1476 165.886 84.9716C165.05 84.7956 164.214 84.5756 163.378 84.3116C162.564 84.0476 161.816 83.6956 161.134 83.2556C160.452 82.8156 159.913 82.2546 159.517 81.5726C159.143 80.8686 158.989 79.9776 159.055 78.8996C159.165 77.3156 159.924 76.0726 161.332 75.1706C162.74 74.2686 164.654 73.8176 167.074 73.8176C168.416 73.8176 169.67 74.0596 170.836 74.5436C172.002 75.0056 172.948 75.7206 173.674 76.6886C174.4 77.6566 174.763 78.8776 174.763 80.3516H170.902C170.902 79.5596 170.66 78.9656 170.176 78.5696C169.692 78.1736 169.109 77.9096 168.427 77.7776C167.767 77.6236 167.173 77.5466 166.645 77.5466C165.677 77.5466 164.874 77.7006 164.236 78.0086C163.62 78.2946 163.312 78.7566 163.312 79.3946C163.312 79.9446 163.521 80.3846 163.939 80.7146C164.379 81.0446 164.962 81.3086 165.688 81.5066C166.414 81.7046 167.195 81.8916 168.031 82.0676C168.889 82.2216 169.736 82.4196 170.572 82.6616C171.43 82.9036 172.2 83.2446 172.882 83.6846C173.564 84.1026 174.103 84.6636 174.499 85.3676C174.895 86.0496 175.06 86.9406 174.994 88.0406C174.884 89.6246 174.092 90.8676 172.618 91.7696C171.144 92.6496 169.241 93.0896 166.909 93.0896Z" fill="black"/>
<g filter="url(#filter0_i_162_4)">
<path d="M60.7565 24.2183L63.9088 22.7312L66.8088 21.8814L69.961 20.713L72.8611 19.757H76.3915H80.1742L84.7134 20.0757L88.4961 20.713H93.9179H97.8266L102.366 20.3944L106.148 21.8814L110.688 21.5628L116.295 18.6948L119.448 18.1637L117.556 16.2518L114.026 15.5082L113.017 14.0211L110.688 12.0029H104.191L98.769 11.4718L94.7341 10.7283H88.808L85.5297 12.7465L86.2862 9.87852L83.5122 8.07277V6.6919L86.7905 8.39143L91.5819 7.32922L88.808 1.69953L89.4384 0.531103L93.3472 7.32922L97.1298 9.13497L102.173 10.091L107.595 9.87852L103.56 0.531103H104.569L109.991 10.3034H112.513L117.052 10.7283L115.791 8.39143L113.521 1.69953L114.026 1.16843L116.421 6.16079L118.187 9.13497L120.204 9.55985L121.717 4.99237L120.204 0.531103L120.582 0L122.348 2.97418L123.104 5.31103L122.095 9.87852L123.104 10.7283L126.13 11.2594L127.643 10.3034L124.869 6.6919L125.122 5.94835L128.4 9.13497L131.552 3.93016L130.543 1.48709H131.048L132.561 2.86796L132.309 4.46127L129.787 10.3034L134.326 7.64788L133.191 5.73591L133.696 5.31103L135.587 6.6919L136.47 5.94835L136.343 3.29284H136.974L137.478 5.73591L136.343 7.64788V9.55985L138.991 4.46127L139.496 3.93016L140 7.32922L138.991 8.92253L135.461 12.0029L135.587 12.534L136.343 14.0211L135.209 16.0393L133.696 18.1637L135.209 19.4384V21.0317L132.309 23.4748L127.643 26.6614L124.113 31.0164L121.087 34.8404L117.496 37.6021L113.9 39.0892L113.017 41.3198L110.495 43.5504L111.444 56.4031L108.418 56.7218L106.275 51.6232L103.248 44.294H94.4222L86.983 57.5716H84.8395L86.7308 51.3045L89.0004 41.3198L84.3351 40.1514L80.0481 38.6643L74.8785 43.2318L70.8436 45.4624L67.5653 47.4806L71.2219 55.7658L69.0784 56.4031L67.5653 53.3227L64.6653 48.9677L62.774 52.3668V56.4031H60V50.7734V45.7811L65.5479 41.3198L65.8001 37.4959L63.9088 34.4155L61.2609 30.2729L60.7565 26.5551V24.2183Z" fill="black"/>
</g>
<defs>
<filter id="filter0_i_162_4" x="60" y="0" width="80" height="61.5713" filterUnits="userSpaceOnUse" color-interpolation-filters="sRGB">
<feFlood flood-opacity="0" result="BackgroundImageFix"/>
<feBlend mode="normal" in="SourceGraphic" in2="BackgroundImageFix" result="shape"/>
<feColorMatrix in="SourceAlpha" type="matrix" values="0 0 0 0 0 0 0 0 0 0 0 0 0 0 0 0 0 0 127 0" result="hardAlpha"/>
<feOffset dy="4"/>
<feGaussianBlur stdDeviation="2"/>
<feComposite in2="hardAlpha" operator="arithmetic" k2="-1" k3="1"/>
<feColorMatrix type="matrix" values="0 0 0 0 0 0 0 0 0 0 0 0 0 0 0 0 0 0 0.25 0"/>
<feBlend mode="normal" in2="shape" result="effect1_innerShadow_162_4"/>
</filter>
</defs>
</svg>
